<?xml version="1.0" encoding="utf-8"?>
<!-- Generator: Adobe Illustrator 19.2.1, SVG Export Plug-In . SVG Version: 6.00 Build 0)  -->
<svg version="1.1" id="Layer_1" xmlns="http://www.w3.org/2000/svg" xmlns:xlink="http://www.w3.org/1999/xlink" x="0px" y="0px"
	 viewBox="0 0 512 512" style="enable-background:new 0 0 512 512;" xml:space="preserve">
<style type="text/css">
	.st0{fill:#1D1D1B;}
</style>
<g>
	<g>
		<path class="st0" d="M112,160h288c8.8,0,16-7.2,16-16s-7.2-16-16-16H112c-8.8,0-16,7.2-16,16S103.2,160,112,160z M400,192H112
			c-8.8,0-16,7.2-16,16s7.2,16,16,16h288c8.8,0,16-7.2,16-16S408.8,192,400,192z M400,256H112c-8.8,0-16,7.2-16,16s7.2,16,16,16h288
			c8.8,0,16-7.2,16-16S408.8,256,400,256z M400,320H112c-8.8,0-16,7.2-16,16s7.2,16,16,16h288c8.8,0,16-7.2,16-16S408.8,320,400,320
			z"/>
	</g>
</g>
</svg>
